<?xml version="1.0" encoding="utf-8"?>
<svg version="1.0" xmlns="http://www.w3.org/2000/svg" width="757.000000pt" height="327.000000pt" viewBox="0 0 757.000000 327.000000" preserveAspectRatio="xMidYMid meet">
  <g transform="translate(0.000000,327.000000) scale(0.100000,-0.100000)" fill="#000000" stroke="none">
    <path d="M749 2561 c33 -37 68 -74 76 -81 9 -7 26 -27 38 -44 l22 -31 5 -690 5 -689 290 -258 c160 -142 295 -261 302 -264 9 -4 724 416 752 442 3 3 -32 42 -78 88 l-82 83 -291 -128 -290 -128 -184 165 -184 166 0 342 0 342 141 165 c78 90 168 197 200 237 l59 73 0 140 0 139 -421 0 -421 0 61 -69z" style="paint-order: fill; fill: rgb(248, 112, 96);"/>
    <path d="M1584 2080 c-69 -14 -107 -35 -165 -88 -106 -97 -140 -196 -175 -513 -21 -191 -20 -197 53 -272 60 -63 88 -81 107 -70 8 4 55 61 105 124 131 169 110 159 322 159 97 0 185 -3 193 -6 9 -3 53 -54 98 -113 96 -126 137 -171 155 -171 24 0 62 31 113 92 44 53 50 65 50 106 0 55 -54 430 -70 485 -30 103 -138 214 -246 253 -40 14 -90 18 -274 20 -124 2 -243 -1 -266 -6z m54 -241 l3 -57 55 -4 c61 -5 74 -16 74 -65 0 -45 -22 -63 -81 -63 l-49 0 0 -60 0 -61 -57 3 -58 3 -3 58 -3 57 -47 0 c-59 0 -72 12 -72 67 0 38 3 45 27 54 15 6 42 8 60 4 l33 -6 0 50 c0 77 4 82 64 79 l51 -3 3 -56z m504 44 c41 -37 6 -113 -53 -113 -51 0 -78 72 -42 112 20 22 70 23 95 1z m-137 -128 c14 -13 25 -30 25 -38 0 -25 -41 -67 -65 -67 -24 0 -65 42 -65 67 0 19 45 63 65 63 9 0 27 -11 40 -25z m260 0 c31 -30 32 -58 3 -85 -29 -27 -66 -22 -90 11 -19 25 -19 28 -4 57 14 27 28 36 59 41 4 0 19 -10 32 -24z m-123 -122 c26 -23 24 -78 -4 -97 -47 -33 -108 -4 -108 51 0 55 70 85 112 46z" style="paint-order: fill; fill: rgb(248, 112, 96);"/>
    <path d="M2817 2084 c-4 -4 -7 -191 -7 -416 l0 -408 262 2 262 3 27 85 27 85 -189 3 -189 2 -2 323 -3 322 -90 3 c-50 1 -94 0 -98 -4z" style="paint-order: fill; fill: rgb(248, 112, 96);"/>
    <path d="M4280 1675 l0 -415 168 0 c271 1 357 19 439 94 142 128 149 499 12 635 -77 78 -179 100 -451 101 l-168 0 0 -415z m452 208 c55 -31 73 -81 72 -204 -1 -92 -4 -111 -25 -149 -37 -68 -74 -84 -201 -89 l-108 -3 0 230 c0 175 3 232 13 236 6 3 58 4 114 2 77 -3 111 -9 135 -23z" style="paint-order: fill; fill: rgb(248, 112, 96);"/>
    <path d="M5112 1763 c3 -314 4 -330 25 -368 28 -53 58 -79 118 -106 46 -21 69 -23 293 -27 l242 -5 0 417 0 417 -97 -3 -98 -3 -3 -322 -2 -323 -114 0 c-97 0 -117 3 -137 19 l-24 19 -3 306 -3 306 -100 0 -100 0 3 -327z" style="paint-order: fill; fill: rgb(248, 112, 96);"/>
    <path d="M3472 1768 c3 -294 4 -316 24 -359 26 -55 63 -91 124 -121 42 -20 64 -22 288 -26 l242 -4 0 411 0 411 -95 0 -95 0 0 -320 0 -320 -111 0 c-110 0 -142 7 -166 39 -9 12 -12 94 -13 309 l0 292 -101 0 -101 0 4 -312z" style="paint-order: fill; fill: rgb(248, 112, 96);"/>
    <path d="M6031 2069 c-82 -33 -120 -96 -121 -202 0 -75 16 -123 51 -157 13 -12 97 -57 186 -101 173 -83 189 -98 159 -144 -16 -25 -17 -25 -190 -25 l-174 0 -13 -37 c-6 -21 -20 -60 -30 -86 l-19 -48 242 3 243 3 48 28 c58 34 88 88 95 172 6 76 -19 140 -70 179 -19 14 -95 56 -169 92 -74 36 -142 73 -151 82 -21 18 -24 57 -5 69 6 4 77 10 157 13 l144 5 33 75 c17 41 32 78 32 83 1 10 -420 7 -448 -4z" style="paint-order: fill; fill: rgb(248, 112, 96);"/>
  </g>
</svg>